# This file uses centimeters as units for non-parametric coordinates.

mtllib WallDestroyed.mtl
g default
v 40.536652 0.000000 -0.030546
v 40.590992 1.060867 -0.030546
v 41.820534 0.000000 -0.030546
v 41.766193 1.060867 -0.030546
v 40.867958 3.068254 -0.357364
v 40.866936 2.875211 -0.357364
v 41.490250 2.875211 -0.357364
v 41.489227 3.068254 -0.357364
v 40.851715 0.000000 12.798778
v 40.867958 3.068254 12.798778
v 40.536652 0.000000 12.471960
v 41.505466 0.000000 12.798778
v 41.820534 0.000000 12.471960
v 41.489227 3.068254 12.798778
v 40.702301 3.233907 12.471960
v 41.654881 3.233907 12.471960
v 40.851715 0.000000 -0.357364
v 40.853237 0.287315 -0.357364
v 40.867958 0.000000 0.441420
v 40.536652 0.000000 0.441420
v 41.505466 0.000000 -0.357364
v 41.503944 0.287315 -0.357364
v 41.489227 0.000000 0.441420
v 40.648212 2.177974 0.441420
v 41.820534 0.000000 0.441420
v 40.867958 2.177974 0.441420
v 41.708969 2.177974 0.441420
v 41.489227 2.177974 0.441420
v 40.675682 2.714261 -0.030546
v 40.702301 3.233907 -0.030546
v 40.663776 2.481828 0.441420
v 40.702301 3.233907 0.441420
v 40.867958 2.481828 0.441420
v 40.867958 3.068254 0.441420
v 41.654881 3.233907 -0.030546
v 41.681499 2.714261 -0.030546
v 41.654881 3.233907 0.441420
v 41.489227 3.068254 0.441420
v 41.693405 2.481828 0.441420
v 41.489227 2.481828 0.441420
v 40.921974 3.068254 0.763338
v 41.435211 3.068254 0.763338
v 40.921974 2.943542 0.763338
v 41.435211 2.943542 0.763338
v 40.867958 0.595019 3.907322
v 40.867958 0.595019 3.937236
v 41.489227 0.595019 3.937236
v 41.489227 0.595019 3.907322
v 40.867958 3.068254 3.678372
v 40.921974 3.068254 3.678372
v 40.921974 2.943542 3.689917
v 41.435211 2.943542 3.689917
v 41.435211 3.068254 3.678372
v 41.489227 3.068254 3.678372
v 40.921974 3.068254 4.321149
v 40.921974 3.068254 6.154688
v 40.921974 2.943542 6.221893
v 40.921974 2.943542 4.301791
v 40.867958 3.068254 4.321149
v 40.867958 3.068254 6.154688
v 41.435211 2.943542 6.221893
v 41.435211 2.943542 4.301791
v 41.435211 3.068254 6.154688
v 41.435211 3.068254 4.321149
v 41.489227 3.068254 6.154688
v 41.489227 3.068254 4.321149
v 40.867958 2.383889 6.523478
v 40.867958 2.383889 6.697612
v 41.489227 2.383889 6.697612
v 41.489227 2.383889 6.523478
v 40.867958 0.294461 10.003076
v 40.867958 0.294461 10.137269
v 41.489227 0.294461 10.137269
v 41.489227 0.294461 10.003076
v 40.921974 2.943542 8.902977
v 40.921974 2.943542 7.203324
v 40.921974 3.068254 7.316016
v 40.921974 3.068254 8.851188
v 40.867958 3.068254 7.316016
v 40.867958 3.068254 8.851188
v 41.435211 2.943542 8.902977
v 41.435211 2.943542 7.203324
v 41.435211 3.068254 8.851188
v 41.435211 3.068254 7.316016
v 41.489227 3.068254 8.851188
v 41.489227 3.068254 7.316016
v 40.867958 0.000000 11.999997
v 40.536652 0.000000 11.999997
v 41.489227 0.000000 11.999997
v 41.820534 0.000000 11.999997
v 40.867958 2.969434 11.999997
v 40.688755 2.969434 11.999997
v 41.668427 2.969434 11.999997
v 41.489227 2.969434 11.999997
v 40.702301 3.233907 12.184165
v 41.654881 3.233907 12.184165
v 41.489227 2.429495 0.547685
v 40.867958 2.429495 0.547685
vt 0.722272 0.536677
vt 0.719281 0.628372
vt 0.587395 0.536663
vt 0.590369 0.628360
vt 0.469970 0.155852
vt 0.470060 0.139172
vt 0.416202 0.139167
vt 0.416289 0.155847
vt 0.820775 0.000010
vt 0.822225 0.265237
vt 0.781534 0.000081
vt 0.877287 0.000001
vt 0.916528 0.000057
vt 0.875929 0.265228
vt 0.790683 0.279844
vt 0.907475 0.279824
vt 0.683065 0.536609
vt 0.682932 0.561424
vt 0.263212 0.000000
vt 0.263546 0.069062
vt 0.234911 0.068619
vt 0.235542 0.027826
vt 0.626602 0.536604
vt 0.626731 0.561418
vt 0.317244 0.069894
vt 0.319717 0.000875
vt 0.241639 0.257015
vt 0.197416 0.161841
vt 0.194139 0.070075
vt 0.346511 0.029544
vt 0.345880 0.070337
vt 0.260632 0.257309
vt 0.333322 0.258434
vt 0.386587 0.073055
vt 0.380470 0.164675
vt 0.314330 0.258140
vt 0.502965 0.125515
vt 0.501499 0.170450
vt 0.786743 0.480947
vt 0.789066 0.546003
vt 0.748294 0.547459
vt 0.746689 0.502509
vt 0.804390 0.481221
vt 0.803605 0.531907
vt 0.855960 0.619518
vt 0.802262 0.618686
vt 0.788434 0.586796
vt 0.870768 0.588070
vt 0.384758 0.170439
vt 0.383300 0.125503
vt 0.871399 0.547277
vt 0.857303 0.532738
vt 0.875735 0.482325
vt 0.915103 0.505117
vt 0.912107 0.549995
vt 0.858088 0.482052
vt 0.320385 0.999536
vt 0.266681 0.999614
vt 0.271310 0.971780
vt 0.315675 0.971715
vt 0.976062 0.263761
vt 0.931696 0.263761
vt 0.931697 0.252980
vt 0.976062 0.252981
vt 0.622241 0.636531
vt 0.622241 0.745613
vt 0.690010 0.745613
vt 0.690010 0.636531
vt 0.266274 0.719805
vt 0.270943 0.719798
vt 0.920916 0.252980
vt 0.920918 0.000998
vt 0.931699 0.000001
vt 0.976064 0.000001
vt 0.986845 0.000999
vt 0.986842 0.252981
vt 0.319978 0.719726
vt 0.315308 0.719733
vt 0.721799 0.753061
vt 0.721801 0.594566
vt 0.732581 0.588757
vt 0.732580 0.754734
vt 0.266193 0.664241
vt 0.265962 0.505746
vt 0.270631 0.505739
vt 0.270862 0.664235
vt 0.776946 0.588757
vt 0.776945 0.754735
vt 0.787727 0.594567
vt 0.787725 0.753062
vt 0.319666 0.505668
vt 0.319897 0.664163
vt 0.315228 0.664170
vt 0.314997 0.505675
vt 0.657086 0.080574
vt 0.657086 0.154992
vt 0.703320 0.154992
vt 0.703320 0.080574
vt 0.930872 0.359364
vt 0.930872 0.518425
vt 0.986815 0.518425
vt 0.986815 0.359364
vt 0.802272 0.619445
vt 0.802271 0.766366
vt 0.791490 0.756625
vt 0.791491 0.623921
vt 0.270292 0.272648
vt 0.270485 0.405352
vt 0.265816 0.405358
vt 0.265623 0.272655
vt 0.846637 0.619445
vt 0.846636 0.766367
vt 0.857418 0.623922
vt 0.857416 0.756625
vt 0.319327 0.272577
vt 0.319520 0.405280
vt 0.314851 0.405287
vt 0.314658 0.272583
vt 0.710497 0.069573
vt 0.712561 0.000541
vt 0.739525 0.029051
vt 0.739134 0.069847
vt 0.656795 0.069059
vt 0.656052 0.000000
vt 0.628158 0.068785
vt 0.628548 0.027989
vt 0.708041 0.326246
vt 0.723531 0.326394
vt 0.638849 0.325584
vt 0.654339 0.325732
vt 0.192092 0.104038
vt 0.191854 0.128915
vt 0.109514 0.128127
vt 0.109752 0.103250
vt 0.177232 0.160449
vt 0.123530 0.159935
vt 0.779857 0.072323
vt 0.762863 0.351720
vt 0.738032 0.350210
vt 0.623896 0.349118
vt 0.599040 0.350153
vt 0.587395 0.070482
vt 0.690010 0.578072
vt 0.684118 0.578072
vt 0.684118 0.581020
vt 0.628133 0.581020
vt 0.628133 0.578072
vt 0.622241 0.578072
vt 0.876115 0.549994
vt 0.876115 0.668154
vt 0.884664 0.668154
vt 0.884664 0.662196
vt 0.965898 0.662196
vt 0.965898 0.668154
vt 0.974448 0.668154
vt 0.974448 0.549994
vt 0.703320 0.069538
vt 0.699300 0.069538
vt 0.699300 0.071549
vt 0.661106 0.071549
vt 0.661106 0.069538
vt 0.657086 0.069538
vt 0.233963 0.434191
vt 0.233963 0.471924
vt 0.243829 0.471924
vt 0.243829 0.465048
vt 0.337577 0.465048
vt 0.337577 0.471924
vt 0.347443 0.471924
vt 0.347443 0.434191
vt 0.986815 0.263761
vt 0.981951 0.263761
vt 0.981951 0.268059
vt 0.935736 0.268059
vt 0.935736 0.263761
vt 0.930872 0.263761
vt 0.640681 0.331789
vt 0.640681 0.518176
vt 0.617263 0.518176
vt 0.619033 0.536604
vt 0.743516 0.536604
vt 0.745286 0.518176
vt 0.721868 0.518176
vt 0.721868 0.331789
vt 0.883838 0.409553
vt 0.883838 0.393473
vt 0.910083 0.393473
vt 0.916917 0.322059
vt 0.885596 0.272608
vt 0.807878 0.272608
vt 0.776556 0.322059
vt 0.783391 0.393473
vt 0.809636 0.393473
vt 0.809636 0.409553
vt 0.809636 0.418065
vt 0.785250 0.418065
vt 0.786672 0.455872
vt 0.809514 0.482052
vt 0.883960 0.482052
vt 0.906802 0.455872
vt 0.908224 0.418065
vt 0.883838 0.418065
vt 0.001454 1.000000
vt 0.000000 0.000851
vt 0.256684 0.000477
vt 0.025688 0.161832
vt 0.025705 0.173432
vt 0.206736 0.458901
vt 0.206758 0.473953
vt 0.052449 0.697739
vt 0.052453 0.700325
vt 0.215989 0.999688
vt 0.211452 0.990509
vt 0.189723 0.999726
vt 0.533741 0.699624
vt 0.533737 0.697038
vt 0.378778 0.473703
vt 0.378756 0.458650
vt 0.558955 0.172656
vt 0.558938 0.161056
vt 0.327473 0.000374
vt 0.584157 0.000000
vt 0.585612 0.999150
vt 0.397343 0.999424
vt 0.375587 0.990270
vt 0.371077 0.999462
vn -0.978514 0.048017 -0.200510
vn -0.997514 0.050581 -0.049058
vn -0.731109 0.030294 -0.681588
vn -0.731109 0.030294 -0.681588
vn 0.997514 0.050583 -0.049057
vn 0.978514 0.048019 -0.200510
vn 0.731105 0.030294 -0.681592
vn 0.731105 0.030294 -0.681592
vn -0.877069 0.034015 -0.479159
vn -0.877069 0.034015 -0.479159
vn -0.994048 0.048701 -0.097456
vn -0.991437 0.048021 -0.121436
vn 0.877073 0.034029 -0.479151
vn 0.877073 0.034029 -0.479151
vn 0.991437 0.048025 -0.121433
vn 0.994048 0.048704 -0.097454
vn -0.802561 0.023163 0.596120
vn -0.802561 0.023163 0.596120
vn -0.802561 0.023163 0.596120
vn -0.802561 0.023163 0.596120
vn 0.802561 0.023164 0.596120
vn 0.802561 0.023164 0.596120
vn 0.802561 0.023164 0.596120
vn 0.802561 0.023164 0.596120
vn 0.000000 -1.000000 0.000000
vn 0.000000 -1.000000 0.000000
vn 0.000000 -1.000000 0.000000
vn 0.000000 -1.000000 0.000000
vn 0.000000 0.000000 -1.000000
vn 0.000000 0.000000 -1.000000
vn -0.000000 0.365876 -0.930664
vn -0.000000 0.365876 -0.930664
vn 0.000000 -1.000000 0.000000
vn 0.000000 -1.000000 0.000000
vn 0.000000 -1.000000 0.000000
vn 0.000000 -1.000000 0.000000
vn -0.998691 0.051156 -0.000000
vn -0.998691 0.051156 -0.000000
vn 0.000000 -1.000000 0.000000
vn 0.000000 -1.000000 0.000000
vn 0.000000 -1.000000 0.000000
vn 0.000000 -1.000000 0.000000
vn 0.000000 0.000000 1.000000
vn 0.000000 0.000000 1.000000
vn 0.000000 0.000000 1.000000
vn 0.000000 0.000000 1.000000
vn 0.998691 0.051158 0.000002
vn 0.998691 0.051158 0.000002
vn 0.000000 0.000000 1.000000
vn 0.000000 0.000000 1.000000
vn 0.000000 0.000000 1.000000
vn 0.000000 0.000000 1.000000
vn 0.000000 0.000000 -1.000000
vn 0.000000 0.000000 -1.000000
vn 0.000000 0.000000 -1.000000
vn 0.000000 0.000000 -1.000000
vn -0.998691 0.051159 0.000001
vn -0.998691 0.051159 0.000001
vn 0.000000 0.000000 1.000000
vn 0.000000 0.000000 1.000000
vn 0.000000 0.000000 1.000000
vn 0.000000 0.000000 1.000000
vn 0.000000 0.891962 -0.452110
vn 0.000000 0.891962 -0.452110
vn 0.000000 0.891962 -0.452110
vn 0.000000 0.891962 -0.452110
vn 0.000000 1.000000 0.000000
vn 0.000000 1.000000 0.000000
vn 0.000000 1.000000 0.000000
vn 0.000000 1.000000 0.000000
vn 0.000000 0.000000 1.000000
vn 0.000000 0.000000 1.000000
vn 0.000000 0.000000 1.000000
vn 0.000000 0.000000 1.000000
vn 0.998691 0.051159 0.000001
vn 0.998691 0.051159 0.000001
vn 0.000000 0.000000 1.000000
vn 0.000000 0.000000 1.000000
vn 0.000000 0.000000 1.000000
vn 0.000000 0.000000 1.000000
vn 0.000000 1.000000 0.000000
vn 0.000000 1.000000 0.000000
vn 0.000000 1.000000 0.000000
vn 0.000000 1.000000 0.000000
vn 0.000000 0.000000 1.000000
vn 0.000000 0.000000 1.000000
vn 0.000000 0.000000 1.000000
vn 0.000000 0.000000 1.000000
vn 0.000000 1.000000 0.000000
vn 0.000000 1.000000 0.000000
vn 0.000000 1.000000 0.000000
vn 0.000000 1.000000 0.000000
vn 0.000000 1.000000 0.000000
vn 0.000000 1.000000 0.000000
vn 0.000000 1.000000 0.000000
vn 0.000000 1.000000 0.000000
vn 1.000000 0.000000 0.000000
vn 1.000000 0.000000 0.000000
vn 1.000000 0.000000 0.000000
vn 1.000000 0.000000 0.000000
vn 0.000000 1.000000 0.000000
vn 0.000000 1.000000 0.000000
vn 0.000000 1.000000 0.000000
vn 0.000000 1.000000 0.000000
vn -1.000000 0.000005 0.000000
vn -1.000000 0.000005 0.000000
vn -1.000000 0.000005 0.000000
vn -1.000000 0.000005 0.000000
vn 0.000000 1.000000 0.000000
vn 0.000000 1.000000 0.000000
vn 0.000000 1.000000 0.000000
vn 0.000000 1.000000 0.000000
vn 1.000000 -0.000013 0.000000
vn 1.000000 -0.000013 0.000000
vn 1.000000 -0.000013 0.000000
vn 1.000000 -0.000013 0.000000
vn 0.000000 1.000000 0.000000
vn 0.000000 1.000000 0.000000
vn 0.000000 1.000000 0.000000
vn 0.000000 1.000000 0.000000
vn 0.000000 1.000000 0.000000
vn 0.000000 1.000000 0.000000
vn 0.000000 1.000000 0.000000
vn 0.000000 1.000000 0.000000
vn -1.000000 -0.000006 0.000000
vn -1.000000 -0.000006 0.000000
vn -1.000000 -0.000006 0.000000
vn -1.000000 -0.000006 0.000000
vn 0.000000 1.000000 0.000000
vn 0.000000 1.000000 0.000000
vn 0.000000 1.000000 0.000000
vn 0.000000 1.000000 0.000000
vn 0.000000 1.000000 0.000000
vn 0.000000 1.000000 0.000000
vn 0.000000 1.000000 0.000000
vn 0.000000 1.000000 0.000000
vn 0.000000 1.000000 0.000000
vn 0.000000 1.000000 0.000000
vn 0.000000 1.000000 0.000000
vn 0.000000 1.000000 0.000000
vn 1.000000 0.000020 0.000000
vn 1.000000 0.000020 0.000000
vn 1.000000 0.000020 0.000000
vn 1.000000 0.000020 0.000000
vn 0.000000 1.000000 0.000000
vn 0.000000 1.000000 0.000000
vn 0.000000 1.000000 0.000000
vn 0.000000 1.000000 0.000000
vn 0.000000 1.000000 0.000000
vn 0.000000 1.000000 0.000000
vn 0.000000 1.000000 0.000000
vn 0.000000 1.000000 0.000000
vn -1.000000 0.000015 0.000000
vn -1.000000 0.000015 0.000000
vn -1.000000 0.000015 0.000000
vn -1.000000 0.000015 0.000000
vn 0.000000 1.000000 0.000000
vn 0.000000 1.000000 0.000000
vn 0.000000 1.000000 0.000000
vn 0.000000 1.000000 0.000000
vn 0.000000 -1.000000 0.000000
vn 0.000000 -1.000000 0.000000
vn 0.000000 -1.000000 0.000000
vn 0.000000 -1.000000 0.000000
vn 0.000000 -1.000000 0.000000
vn 0.000000 -1.000000 0.000000
vn 0.000000 -1.000000 0.000000
vn 0.000000 -1.000000 0.000000
vn 0.000000 -1.000000 0.000000
vn 0.000000 -1.000000 0.000000
vn 0.000000 -1.000000 0.000000
vn 0.000000 -1.000000 0.000000
vn 0.000000 0.000000 -1.000000
vn 0.000000 0.000000 -1.000000
vn 0.000000 0.000000 -1.000000
vn 0.000000 0.000000 -1.000000
vn 0.000000 0.000000 -1.000000
vn 0.000000 0.000000 -1.000000
vn 0.000000 0.000000 -1.000000
vn 0.000000 0.000000 -1.000000
vn 0.000000 0.000000 1.000000
vn 0.000000 0.000000 1.000000
vn 0.000000 0.000000 1.000000
vn 0.000000 0.000000 1.000000
vn 0.000000 1.000000 0.000000
vn 0.000000 1.000000 0.000000
vn 0.000000 1.000000 0.000000
vn 0.000000 1.000000 0.000000
vn 0.000000 0.891962 0.452110
vn 0.000000 0.891962 0.452110
vn 0.000000 0.891962 0.452110
vn 0.000000 0.891962 0.452110
vn -0.998691 0.051156 -0.000001
vn -0.998691 0.051156 -0.000001
vn -0.998691 0.051156 -0.000001
vn -0.998691 0.051156 -0.000001
vn -0.998691 0.051156 -0.000001
vn 0.998691 0.051157 -0.000001
vn 0.998691 0.051157 -0.000001
vn 0.998691 0.051157 -0.000001
vn 0.998691 0.051157 -0.000001
vn 0.998691 0.051157 -0.000001
vn 0.000000 0.092177 0.995743
vn 0.000000 0.092177 0.995743
vn 0.000000 0.092177 0.995743
vn 0.000000 0.092177 0.995743
vn 0.000000 0.092177 0.995743
vn 0.000000 0.092177 0.995743
vn 0.000000 0.092177 0.995743
vn 0.000000 0.092177 0.995743
vn 0.000000 0.153390 -0.988166
vn 0.000000 0.153390 -0.988166
vn 0.000000 0.153390 -0.988166
vn 0.000000 0.153390 -0.988166
vn 0.000000 0.153390 -0.988166
vn 0.000000 0.153390 -0.988166
vn 0.000000 0.153390 -0.988166
vn 0.000000 0.153390 -0.988166
vn 0.000000 0.474385 0.880318
vn 0.000000 0.474385 0.880318
vn 0.000000 0.474385 0.880318
vn 0.000000 0.474385 0.880318
vn 0.000000 0.474385 0.880318
vn 0.000000 0.474385 0.880318
vn 0.000000 0.474385 0.880318
vn 0.000000 0.474385 0.880318
vn 0.000000 0.670448 -0.741957
vn 0.000000 0.670448 -0.741957
vn 0.000000 0.670448 -0.741957
vn 0.000000 0.670448 -0.741957
vn 0.000000 0.670448 -0.741957
vn 0.000000 0.670448 -0.741957
vn 0.000000 0.670448 -0.741957
vn 0.000000 0.670448 -0.741957
vn 0.000000 0.383521 0.923532
vn 0.000000 0.383521 0.923532
vn 0.000000 0.383521 0.923532
vn 0.000000 0.383521 0.923532
vn 0.000000 0.383521 0.923532
vn 0.000000 0.383521 0.923532
vn 0.000000 0.383521 0.923532
vn 0.000000 0.383521 0.923532
vn 0.000000 0.571454 -0.820634
vn 0.000000 0.571454 -0.820634
vn 0.000000 0.571454 -0.820634
vn 0.000000 0.571454 -0.820634
vn 0.000000 0.571454 -0.820634
vn 0.000000 0.571454 -0.820634
vn 0.000000 0.571454 -0.820634
vn 0.000000 0.571454 -0.820634
vn -0.000000 0.389180 -0.921162
vn -0.000000 0.389180 -0.921162
vn -0.000000 0.389180 -0.921162
vn -0.000000 0.389180 -0.921162
vn -0.000000 0.389180 -0.921162
vn -0.000000 0.389180 -0.921162
vn -0.000000 0.389180 -0.921162
vn -0.000000 0.389180 -0.921162
vn 0.000000 -0.897111 -0.441806
vn 0.000000 -0.897111 -0.441806
vn 0.000000 -0.897111 -0.441806
vn 0.000000 -0.897111 -0.441806
vn 0.000000 -0.897111 -0.441806
vn 0.000000 -0.897110 -0.441806
vn 0.000000 -0.897110 -0.441806
vn 0.000000 -0.897111 -0.441806
vn 0.000000 -0.897111 -0.441806
vn 0.000000 -0.897111 -0.441806
vn -1.000000 0.000001 0.000000
vn -1.000000 0.000001 0.000000
vn -1.000000 0.000001 0.000000
vn -1.000000 0.000001 0.000000
vn -1.000000 0.000001 0.000000
vn -1.000000 0.000001 0.000000
vn -1.000000 0.000001 0.000000
vn -1.000000 0.000001 0.000000
vn -1.000000 0.000001 0.000000
vn -1.000000 0.000001 0.000000
vn -1.000000 0.000001 0.000000
vn -1.000000 0.000001 0.000000
vn -1.000000 0.000001 0.000000
vn -1.000000 0.000001 0.000000
vn -1.000000 0.000001 0.000000
vn -1.000000 0.000001 0.000000
vn -1.000000 0.000001 0.000000
vn -1.000000 0.000001 0.000000
vn 1.000000 0.000000 0.000000
vn 1.000000 0.000000 0.000000
vn 1.000000 0.000000 0.000000
vn 1.000000 0.000000 0.000000
vn 1.000000 0.000000 0.000000
vn 1.000000 0.000000 0.000000
vn 1.000000 0.000000 0.000000
vn 1.000000 0.000000 0.000000
vn 1.000000 0.000000 0.000000
vn 1.000000 0.000000 0.000000
vn 1.000000 0.000000 0.000000
vn 1.000000 0.000000 0.000000
vn 1.000000 0.000000 0.000000
vn 1.000000 0.000000 0.000000
vn 1.000000 0.000000 0.000000
vn 1.000000 0.000000 0.000000
vn 1.000000 0.000000 0.000000
vn 1.000000 0.000000 0.000000
s 1
g Wall Boolean_v1
usemtl initialShadingGroup
f 1/1/1 2/2/2 18/18/3 17/17/4
s 2
f 4/4/5 3/3/6 21/23/7 22/24/8
s 3
f 5/5/9 6/6/10 29/37/11 30/38/12
s 4
f 7/7/13 8/8/14 35/49/15 36/50/16
s off
f 11/11/17 9/9/18 10/10/19 15/15/20
f 14/14/21 12/12/22 13/13/23 16/16/24
f 17/19/25 19/20/26 20/21/27 1/22/28
s 5
f 21/23/29 17/17/30 18/18/31 22/24/32
s off
f 23/25/33 19/20/34 17/19/35 21/26/36
s 1
f 20/21/37 24/27/38 2/28/2 1/29/1
s off
f 23/25/39 21/26/40 3/30/41 25/31/42
f 19/20/43 26/32/44 24/27/45 20/21/46
s 2
f 27/33/47 25/31/48 3/34/6 4/35/5
s off
f 28/36/49 23/25/50 25/31/51 27/33/52
f 6/6/53 5/5/54 8/8/55 7/7/56
s 3
f 31/39/57 32/40/58 30/41/12 29/42/11
s off
f 33/43/59 34/44/60 32/40/61 31/39/62
f 8/45/63 5/46/64 30/47/65 35/48/66
f 32/40/67 37/51/68 35/48/69 30/47/70
f 34/44/71 38/52/72 37/51/73 32/40/74
s 4
f 37/51/75 39/53/76 36/54/16 35/55/15
s off
f 38/52/77 40/56/78 39/53/79 37/51/80
f 38/57/81 34/58/82 41/59/83 42/60/84
f 42/61/85 41/62/86 43/63/87 44/64/88
f 45/65/89 46/66/90 47/67/91 48/68/92
f 34/58/93 49/69/94 50/70/95 41/59/96
f 41/71/97 50/72/98 51/73/99 43/63/100
f 43/63/101 51/73/102 52/74/103 44/64/104
f 53/75/105 42/76/106 44/64/107 52/74/108
f 54/77/109 38/57/110 42/60/111 53/78/112
f 55/79/113 56/80/114 57/81/115 58/82/116
f 59/83/117 60/84/118 56/85/119 55/86/120
f 58/82/121 57/81/122 61/87/123 62/88/124
f 63/89/125 64/90/126 62/88/127 61/87/128
f 65/91/129 66/92/130 64/93/131 63/94/132
f 67/95/133 68/96/134 69/97/135 70/98/136
f 71/99/137 72/100/138 73/101/139 74/102/140
f 75/103/141 76/104/142 77/105/143 78/106/144
f 78/107/145 77/108/146 79/109/147 80/110/148
f 81/111/149 82/112/150 76/104/151 75/103/152
f 83/113/153 84/114/154 82/112/155 81/111/156
f 85/115/157 86/116/158 84/117/159 83/118/160
f 87/119/161 9/120/162 11/121/163 88/122/164
f 87/119/165 89/123/166 12/124/167 9/120/168
f 12/124/169 89/123/170 90/125/171 13/126/172
f 91/127/173 87/119/174 88/122/175 92/128/176
f 93/129/177 90/125/178 89/123/179 94/130/180
f 9/9/181 12/12/182 14/14/183 10/10/184
f 95/131/185 15/132/186 16/133/187 96/134/188
f 10/135/189 14/136/190 16/133/191 15/132/192
f 92/128/193 88/122/194 11/137/195 15/138/196 95/139/197
f 96/140/198 16/141/199 13/142/200 90/125/201 93/129/202
f 48/68/203 54/143/204 53/144/205 52/145/206 51/146/207 50/147/208 49/148/209 45/65/210
f 46/149/211 59/150/212 55/151/213 58/152/214 62/153/215 64/154/216 66/155/217 47/156/218
f 70/98/219 65/157/220 63/158/221 61/159/222 57/160/223 56/161/224 60/162/225 67/95/226
f 68/163/227 79/164/228 77/165/229 76/166/230 82/167/231 84/168/232 86/169/233 69/170/234
f 74/102/235 85/171/236 83/172/237 81/173/238 75/174/239 78/175/240 80/176/241 71/99/242
f 72/177/243 91/178/244 92/179/245 95/180/246 96/181/247 93/182/248 94/183/249 73/184/250
s 5
f 97/185/251 28/186/252 27/187/253 4/188/254 22/189/32 18/190/31 2/191/255 24/192/256 26/193/257 98/194/258
s off
f 98/194/259 33/195/260 31/196/261 29/197/262 6/198/263 7/199/264 36/200/265 39/201/266 40/202/267 97/185/268
f 19/203/269 87/204/270 91/205/271 72/206/272 71/207/273 80/110/274 79/109/275 68/208/276 67/209/277 60/84/278 59/83/279 46/210/280 45/211/281 49/69/282 34/58/283 33/212/284 98/213/285 26/214/286
f 38/57/287 54/77/288 48/215/289 47/216/290 66/92/291 65/91/292 70/217/293 69/218/294 86/116/295 85/115/296 74/219/297 73/220/298 94/221/299 89/222/300 23/223/301 28/224/302 97/225/303 40/226/304
