# This file uses centimeters as units for non-parametric coordinates.

mtllib Wall Base.mtl
g default
v 12.000000 8.317087 -12.000000
v 11.687966 8.317087 -12.312034
v 15.185455 8.317085 -15.809529
v 15.497496 8.317085 -15.497489
v 15.497496 8.317085 -12.312034
v 15.185455 8.317085 -12.000000
v 11.687966 8.317085 -15.497489
v 12.000000 8.317085 -15.809529
v 15.497496 8.317085 -13.904761
v 13.592728 8.317085 -15.809529
v 12.000000 0.000000 -12.000000
v 11.687966 0.000000 -12.312034
v 15.497496 -0.000001 -15.497489
v 15.185455 -0.000001 -15.809529
v 15.497496 -0.000001 -12.312034
v 15.185455 -0.000001 -12.000000
v 12.000000 -0.000001 -15.809529
v 11.687966 -0.000001 -15.497489
v 15.497496 -0.000001 -13.904761
v 13.592728 -0.000001 -15.809529
vt 0.000000 0.000000
vt 1.000000 0.000000
vt 1.000000 1.000000
vt 0.000000 1.000000
vt 0.000000 0.000000
vt 1.000000 0.000000
vt 1.000000 1.000000
vt 0.000000 1.000000
vt 0.000000 0.000000
vt 1.000000 0.000000
vt 1.000000 1.000000
vt 0.000000 1.000000
vt 0.000000 0.000000
vt 1.000000 0.000000
vt 1.000000 1.000000
vt 0.000000 1.000000
vt 0.000000 0.000000
vt 1.000000 0.000000
vt 1.000000 1.000000
vt 0.000000 1.000000
vt 0.000000 0.000000
vt 1.000000 0.000000
vt 1.000000 1.000000
vt 0.000000 1.000000
vt 0.000000 0.000000
vt 1.000000 0.000000
vt 1.000000 1.000000
vt 0.000000 1.000000
vt 0.000000 0.000000
vt 1.000000 0.000000
vt 1.000000 1.000000
vt 0.000000 1.000000
vt 0.000000 0.000000
vt 1.000000 0.000000
vt 1.000000 1.000000
vt 0.000000 1.000000
vt 0.000000 0.000000
vt 1.000000 0.000000
vt 1.000000 1.000000
vt 0.000000 1.000000
vn -0.707107 0.000000 0.707106
vn -0.707107 0.000000 0.707107
vn -0.707107 0.000000 0.707106
vn -0.707107 0.000000 0.707106
vn 0.707107 0.000000 -0.707106
vn 0.707107 0.000000 -0.707107
vn 0.707107 0.000000 -0.707106
vn 0.707107 0.000000 -0.707106
vn 0.707100 0.000000 0.707114
vn 0.707100 0.000000 0.707114
vn 0.707100 0.000000 0.707114
vn 0.707100 0.000000 0.707114
vn -0.707114 0.000000 -0.707099
vn -0.707114 0.000000 -0.707099
vn -0.707114 0.000000 -0.707099
vn -0.707114 0.000000 -0.707099
vn 0.000000 0.000000 1.000000
vn 0.000000 0.000000 1.000000
vn 0.000000 0.000000 1.000000
vn 0.000000 0.000000 1.000000
vn 1.000000 0.000000 0.000000
vn 1.000000 0.000000 0.000000
vn 1.000000 0.000000 0.000000
vn 1.000000 0.000000 0.000000
vn 0.000000 0.000000 -1.000000
vn 0.000000 0.000000 -1.000000
vn 0.000000 0.000000 -1.000000
vn 0.000000 0.000000 -1.000000
vn -1.000000 0.000000 0.000000
vn -1.000000 0.000000 0.000000
vn -1.000000 0.000000 0.000000
vn -1.000000 0.000000 0.000000
vn 1.000000 0.000000 0.000000
vn 1.000000 0.000000 0.000000
vn 1.000000 0.000000 0.000000
vn 1.000000 0.000000 0.000000
vn 0.000000 0.000000 -1.000000
vn 0.000000 0.000000 -1.000000
vn 0.000000 0.000000 -1.000000
vn 0.000000 0.000000 -1.000000
vn 0.000000 1.000000 -0.000000
vn 0.000000 1.000000 -0.000000
vn -0.000000 1.000000 0.000000
vn -0.000000 1.000000 0.000000
vn -0.000000 1.000000 0.000000
vn 0.000000 1.000000 -0.000000
vn 0.000000 1.000000 -0.000000
vn 0.000000 1.000000 -0.000000
vn 0.000000 1.000000 -0.000000
vn 0.000000 1.000000 -0.000000
s off
g Wall_Tower_Bottom Buildings_CLean_UV
usemtl initialShadingGroup
f 1/1/1 2/2/2 12/3/3 11/4/4
f 3/5/5 4/6/6 13/7/7 14/8/8
f 5/9/9 6/10/10 16/11/11 15/12/12
f 7/13/13 8/14/14 17/15/15 18/16/16
f 6/17/17 1/18/18 11/19/19 16/20/20
f 9/21/21 5/22/22 15/23/23 19/24/24
f 8/25/25 10/26/26 20/27/27 17/28/28
f 2/29/29 7/30/30 18/31/31 12/32/32
f 4/33/33 9/34/34 19/35/35 13/36/36
f 10/37/37 3/38/38 14/39/39 20/40/40
s 1
f 3/38/41 6/10/42 5/22/43 9/34/44 4/6/45
f 2/2/46 1/18/47 8/14/48 7/30/49
f 8/14/48 1/18/47 6/10/42 3/38/41 10/26/50
